<svg xmlns="http://www.w3.org/2000/svg" width="24" height="24" viewBox="0 0 24 24" fill="none">
  <path d="M22 5.8a8.49 8.49 0 0 1-2.36.64 4.13 4.13 0 0 0 1.81-2.27 8.21 8.21 0 0 1-2.61 1 4.1 4.1 0 0 0-7 3.74A11.64 11.64 0 0 1 3.39 4.62a4.16 4.16 0 0 0-.55 2.07 4.09 4.09 0 0 0 1.82 3.41 4.05 4.05 0 0 1-1.86-.51v.05a4.1 4.1 0 0 0 3.3 4.03 4.1 4.1 0 0 1-1.86.07 4.11 4.11 0 0 0 3.83 2.84A8.22 8.22 0 0 1 2 18.28a11.57 11.57 0 0 0 6.29 1.85A11.59 11.59 0 0 0 20 8.45v-.53a8.43 8.43 0 0 0 2-2.12Z" fill="currentColor"/>
</svg>
